<svg width="200" height="60" viewBox="0 0 200 60" xmlns="http://www.w3.org/2000/svg">
  <!-- Fondo con gradiente verde -->
  <defs>
    <linearGradient id="greenGradient" x1="0%" y1="0%" x2="100%" y2="0%">
      <stop offset="0%" style="stop-color:#7CB342;stop-opacity:1" />
      <stop offset="100%" style="stop-color:#558B2F;stop-opacity:1" />
    </linearGradient>
    <linearGradient id="yellowGradient" x1="0%" y1="0%" x2="100%" y2="0%">
      <stop offset="0%" style="stop-color:#FFC107;stop-opacity:1" />
      <stop offset="100%" style="stop-color:#FF9800;stop-opacity:1" />
    </linearGradient>
  </defs>
  
  <!-- Ícono de casa eco -->
  <path d="M20 35 L35 20 L50 35 L50 50 L20 50 Z" fill="url(#greenGradient)" />
  <rect x="25" y="40" width="8" height="10" fill="#FFC107" />
  <circle cx="42" cy="32" r="3" fill="#FFC107" />
  
  <!-- Hoja eco -->
  <path d="M8 25 Q15 15 22 25 Q15 35 8 25" fill="#7CB342" />
  
  <!-- Circuitos tecnológicos -->
  <g stroke="#FFC107" stroke-width="1.5" fill="none">
    <circle cx="55" cy="30" r="2" />
    <line x1="57" y1="30" x2="62" y2="30" />
    <circle cx="64" cy="30" r="1.5" />
    <line x1="55" y1="32" x2="55" y2="37" />
    <circle cx="55" cy="39" r="1.5" />
  </g>
  
  <!-- Texto ECO SMART -->
  <text x="75" y="25" font-family="Arial, sans-serif" font-size="16" font-weight="bold" fill="#FFFFFF">ECO</text>
  <text x="75" y="40" font-family="Arial, sans-serif" font-size="16" font-weight="bold" fill="#FFC107">SMART</text>
  
  <!-- Texto CONSTRUCCIONES -->
  <text x="75" y="52" font-family="Arial, sans-serif" font-size="8" font-weight="normal" fill="#FFFFFF" letter-spacing="1px">CONSTRUCCIONES S.A.S</text>
</svg> 